<svg xmlns="http://www.w3.org/2000/svg" viewBox="0 0 3045 868" role="img" aria-label="WEIAN"><defs><linearGradient id="s" x1="0" y1="0" x2="0" y2="1"><stop offset="0" stop-color="#1f5fae"/><stop offset="1" stop-color="#4a9fe0"/></linearGradient></defs><g transform="translate(85.5,782.5) scale(1,-1)"><g fill="#0C447C"><path d="M864.9 695 679.5 0H563.4L432.0 526L292.5 0L177.3 -1L0.0 695H108.9L238.5 129L378.9 695H494.09999999999997L624.6 132L755.1 695Z"/><path d="M1052.9 603V399H1292.9V306H1052.9V93H1322.9V0H938.9V696H1322.9V603Z"/><path d="M1532.9 695V0H1418.9V695Z"/><path d="M2052.9 142H1761.9L1711.9 0H1592.9L1841.9 696H1973.9L2222.9 0H2102.9ZM2020.9 235 1907.9 558 1793.9 235Z"/><rect x="2302.9" y="0" width="114.0" height="697.0"/><rect x="2759.9" y="0" width="114.0" height="697.0"/></g><path d="M 2816.9 697.0 C 2816.9 292.7 2359.9 404.3 2359.9 0" fill="none" stroke="url(#s)" stroke-width="114.0" stroke-linecap="butt"/></g></svg>
